<svg xmlns="http://www.w3.org/2000/svg" xmlns:xlink="http://www.w3.org/1999/xlink" width="187.711" height="121.729" viewBox="0 0 187.711 121.729">
  <defs>
    <clipPath id="clip-path">
      <rect id="Rectángulo_464130" data-name="Rectángulo 464130" width="123.557" height="109.568" fill="none"/>
    </clipPath>
  </defs>
  <g id="Grupo_1214980" data-name="Grupo 1214980" transform="translate(-185.711 -1426)">
    <g id="Grupo_1211022" data-name="Grupo 1211022" transform="translate(-103.566 -7442.039)">
      <g id="Grupo_1204518" data-name="Grupo 1204518" transform="translate(289.277 8868.039)">
        <rect id="Rectángulo_455283" data-name="Rectángulo 455283" width="187.711" height="121.729" rx="19" fill="#9ed1ff"/>
      </g>
    </g>
    <g id="Grupo_1214114" data-name="Grupo 1214114" transform="translate(217.711 1432)">
      <g id="Grupo_1214113" data-name="Grupo 1214113" clip-path="url(#clip-path)">
        <path id="Trazado_1281432" data-name="Trazado 1281432" d="M119.506,109.568H4.051A4.051,4.051,0,0,1,0,105.517V4.051A4.051,4.051,0,0,1,4.051,0H119.506a4.051,4.051,0,0,1,4.051,4.051V105.517a4.051,4.051,0,0,1-4.051,4.051" fill="#f5f6f7"/>
        <path id="Trazado_1281433" data-name="Trazado 1281433" d="M332.41,48.465l.005,88.361a3.771,3.771,0,0,1-3.175,3.909,24.478,24.478,0,0,1-5.928-.085c1.049-1.25,1.891-2.112,1.887-3.48L324.826,121c1.092-1.5,1.249-2.721.2-4.182l.282-68.354Z" transform="translate(-208.86 -31.306)" fill="#e8ecf0"/>
        <path id="Trazado_1281434" data-name="Trazado 1281434" d="M185.985,92.34l-3.015,9.99a2.242,2.242,0,0,1-2.225,1.263,2.333,2.333,0,0,1-1.962-1.712l-2.863-9.408-1.832,9.1a1.96,1.96,0,0,1-2.3,1.821c-1.057-.1-1.672-1.169-1.44-2.444l2.884-15.84a2.278,2.278,0,0,1,4.471-.262l3.241,10.616,3.321-10.983a1.949,1.949,0,0,1,2.051-1.34,2.046,2.046,0,0,1,2.159,1.557l3.151,16.255a1.963,1.963,0,0,1-1.1,2.381,1.9,1.9,0,0,1-2.564-1.442Z" transform="translate(-110.013 -53.693)" fill="#7d8e9a"/>
        <path id="Trazado_1281435" data-name="Trazado 1281435" d="M97.027,101.412a2.025,2.025,0,0,1-1.682,2.181,1.848,1.848,0,0,1-2.066-1.7l-.073-7.01-7.759.064-.057,6.652a1.9,1.9,0,0,1-1.678,1.983,1.806,1.806,0,0,1-2.033-1.792L81.67,85.1A1.814,1.814,0,0,1,83.4,83.129c1.313-.045,2.006.768,2,2.157L85.4,91.1l7.829.044,0-5.853a1.945,1.945,0,0,1,1.861-2.155c1.24-.05,1.936.83,1.936,2.169Z" transform="translate(-52.759 -53.7)" fill="#7d8e9a"/>
        <path id="Trazado_1281436" data-name="Trazado 1281436" d="M143.447,101.335a1.992,1.992,0,0,1-1.564,2.2,1.845,1.845,0,0,1-2.141-1.649l-.029-14.975-2.631-.139c-1.267-.067-1.937-.7-1.974-1.717-.045-1.269.687-2.009,2.087-2.008l8.866.008a1.857,1.857,0,1,1,.074,3.706l-2.7.176Z" transform="translate(-87.278 -53.648)" fill="#7d8f9a"/>
        <path id="Trazado_1281437" data-name="Trazado 1281437" d="M248.4,103.54l-6.324.045a1.792,1.792,0,0,1-1.772-1.993l.051-16.917a1.66,1.66,0,0,1,1.8-1.531,1.8,1.8,0,0,1,1.9,1.837l.031,14.876,4.535.11c.956.023,1.233,1.039,1.22,1.806-.012.684-.327,1.76-1.445,1.768" transform="translate(-155.235 -53.71)" fill="#7f909b"/>
        <path id="Trazado_1281438" data-name="Trazado 1281438" d="M54.83,257.82l-23.709,0c-1.262,0-2.079-.589-2.151-1.718a1.841,1.841,0,0,1,1.816-1.989l24.372,0a1.845,1.845,0,0,1,1.814,1.983c-.085,1.156-.874,1.724-2.142,1.724" transform="translate(-18.713 -164.155)" fill="#1e535a"/>
        <path id="Trazado_1281439" data-name="Trazado 1281439" d="M313.448,228.368c1.044,1.461.888,2.682-.2,4.182l-4.688,6.438a1.7,1.7,0,0,1-2.519.024,1.833,1.833,0,0,1-.287-2.478l4.322-6.216-4.394-6.355a1.825,1.825,0,0,1,.681-2.58,1.949,1.949,0,0,1,2.6.7Z" transform="translate(-197.277 -142.858)" fill="#7d8f9a"/>
        <path id="Trazado_1281440" data-name="Trazado 1281440" d="M31.026,177.681a1.957,1.957,0,0,1-.119,2.695,1.841,1.841,0,0,1-2.8-.291L22.851,172.6a1.6,1.6,0,0,1,.042-1.847l5.262-7.518a1.938,1.938,0,0,1,2.326-.522,1.752,1.752,0,0,1,.872,2.364l-4.482,6.58Z" transform="translate(-14.585 -105.004)" fill="#7d8f9a"/>
        <path id="Trazado_1281441" data-name="Trazado 1281441" d="M131.011,205.327l-16.889-.036a1.847,1.847,0,0,1-1.693-1.592c-.122-.663.31-2.05,1.34-2.05l17.909,0c.99,0,1.409,1.433,1.3,2.075a1.971,1.971,0,0,1-1.966,1.607" transform="translate(-72.616 -130.262)" fill="#1e535a"/>
        <path id="Trazado_1281442" data-name="Trazado 1281442" d="M172.6,179.122l-16.874.013a1.864,1.864,0,0,1-1.874-1.847,1.827,1.827,0,0,1,1.851-1.883l16.62-.019a1.875,1.875,0,0,1,2.048,1.6,1.812,1.812,0,0,1-1.77,2.133" transform="translate(-99.39 -113.299)" fill="#ffb851"/>
        <path id="Trazado_1281443" data-name="Trazado 1281443" d="M272.018,238.571a1.9,1.9,0,0,1-2.4,1.182,1.854,1.854,0,0,1-1.152-2.445l6.762-14.062a1.9,1.9,0,0,1,2.542-.839,1.867,1.867,0,0,1,.865,2.5Z" transform="translate(-173.329 -143.551)" fill="#7d8f9a"/>
        <path id="Trazado_1281444" data-name="Trazado 1281444" d="M47.385,231.795l-16.291.006c-1.269,0-2.072-.576-2.152-1.721a1.824,1.824,0,0,1,1.825-1.985l16.95-.01a1.819,1.819,0,0,1,1.76,1.976,1.857,1.857,0,0,1-2.093,1.733" transform="translate(-18.694 -147.343)" fill="#ffb851"/>
        <path id="Trazado_1281445" data-name="Trazado 1281445" d="M121.787,231.7l-14.353.029a1.861,1.861,0,0,1-1.953-1.748,1.906,1.906,0,0,1,1.953-1.989l14.178,0a1.822,1.822,0,0,1,1.881,1.695,1.754,1.754,0,0,1-1.706,2.009" transform="translate(-68.138 -147.282)" fill="#69d7e5"/>
        <path id="Trazado_1281446" data-name="Trazado 1281446" d="M105.167,179.19l-12.085,0a1.841,1.841,0,0,1-1.74-1.851,1.75,1.75,0,0,1,1.674-1.843l12.367.005a1.733,1.733,0,0,1,1.6,1.861,1.865,1.865,0,0,1-1.812,1.824" transform="translate(-59.007 -113.373)" fill="#7f909b"/>
        <path id="Trazado_1281447" data-name="Trazado 1281447" d="M251.152,205.177l-11.8.046a1.983,1.983,0,0,1-2.036-1.641c-.132-.691.327-2.05,1.369-2.056l12.3-.072a1.924,1.924,0,0,1,1.934,1.6,1.944,1.944,0,0,1-1.775,2.125" transform="translate(-153.293 -130.14)" fill="#ffb851"/>
        <path id="Trazado_1281448" data-name="Trazado 1281448" d="M292.463,179.115l-11.772.014a1.786,1.786,0,0,1-1.886-1.849c-.013-1.246.847-1.919,2.209-1.908l11.954.1c.985.008,1.4,1.12,1.377,1.777a1.828,1.828,0,0,1-1.882,1.87" transform="translate(-180.107 -113.29)" fill="#ffb851"/>
        <path id="Trazado_1281449" data-name="Trazado 1281449" d="M140.339,257.769l-11.879.022a1.84,1.84,0,0,1-1.933-1.747,1.861,1.861,0,0,1,1.935-1.956l12.036.04a1.685,1.685,0,0,1,1.558,1.621,1.731,1.731,0,0,1-1.718,2.019" transform="translate(-81.734 -164.141)" fill="#7b8c98"/>
        <path id="Trazado_1281450" data-name="Trazado 1281450" d="M243.3,231.808l-11.338-.05a1.818,1.818,0,0,1-1.683-1.689,1.84,1.84,0,0,1,1.7-1.96l11.651-.006a1.843,1.843,0,0,1,1.755,1.97,1.89,1.89,0,0,1-2.08,1.735" transform="translate(-148.753 -147.354)" fill="#69d7e5"/>
        <path id="Trazado_1281451" data-name="Trazado 1281451" d="M68.488,205.29l-9.682.024a1.94,1.94,0,0,1-1.782-1.56c-.166-.815.408-2.1,1.463-2.105l10.145-.014c.966,0,1.461,1.113,1.451,1.812s-.5,1.839-1.595,1.842" transform="translate(-36.82 -130.257)" fill="#69d7e5"/>
        <path id="Trazado_1281452" data-name="Trazado 1281452" d="M186.43,231.708l-10.1.007c-1.074,0-1.557-1.178-1.473-1.975a1.847,1.847,0,0,1,1.821-1.684l9.552.018a1.786,1.786,0,0,1,1.7,1.68c.055.707-.322,1.953-1.506,1.954" transform="translate(-112.952 -147.324)" fill="#1e535a"/>
        <path id="Trazado_1281453" data-name="Trazado 1281453" d="M238.683,179.273l-6.647-.07a1.811,1.811,0,0,1-1.774-1.839,1.743,1.743,0,0,1,1.708-1.854l7.358.026a1.7,1.7,0,0,1,1.5,2.153,1.98,1.98,0,0,1-2.146,1.584" transform="translate(-148.749 -113.38)" fill="#69d7e5"/>
        <path id="Trazado_1281454" data-name="Trazado 1281454" d="M198.03,205.271l-7.18.048a1.777,1.777,0,0,1-1.748-1.55c-.118-.735.158-2.051,1.164-2.057l7.937-.047c.936-.006,1.478,1.106,1.459,1.794a1.8,1.8,0,0,1-1.631,1.811" transform="translate(-122.143 -130.275)" fill="#80919c"/>
        <path id="Trazado_1281455" data-name="Trazado 1281455" d="M197.547,257.853l-6.392,0c-1.275,0-2.059-.576-2.113-1.713a1.778,1.778,0,0,1,1.782-1.981l7.052.02a1.807,1.807,0,0,1,1.752,1.932,1.856,1.856,0,0,1-2.082,1.738" transform="translate(-122.12 -164.188)" fill="#69d7e5"/>
        <path id="Trazado_1281456" data-name="Trazado 1281456" d="M306.121,205.332l-4.681-.027a1.6,1.6,0,0,1-1.52-1.484c-.12-.793.166-2.078,1.164-2.084l5.516-.032c.99-.006,1.381,1.059,1.371,1.782a1.751,1.751,0,0,1-1.85,1.845" transform="translate(-193.731 -130.301)" fill="#80919c"/>
        <path id="Trazado_1281457" data-name="Trazado 1281457" d="M244.347,257.657a19.5,19.5,0,0,1-5.723.1,1.69,1.69,0,0,1-1.331-1.9,1.816,1.816,0,0,1,1.681-1.647l4.928.019a1.484,1.484,0,0,1,1.436,1.295c.143.678.046,1.915-.992,2.134" transform="translate(-153.286 -164.219)" fill="#ffb851"/>
        <path id="Trazado_1281458" data-name="Trazado 1281458" d="M61.582,175.529a1.8,1.8,0,0,1,.874,2.517c-.778,1.449-4.425,1.483-5.24.01A1.8,1.8,0,0,1,58,175.562a5.8,5.8,0,0,1,3.578-.034" transform="translate(-36.824 -113.22)" fill="#ffb851"/>
        <path id="Trazado_1281459" data-name="Trazado 1281459" d="M113.913.016c1.008.821,2.382,1.826,2.389,3.393l.152,13.746-70.363.039a2.347,2.347,0,0,1-2.255-1.435L41.8,11.394a2.04,2.04,0,0,0-1.793-1.168l-20.873,0a2.155,2.155,0,0,0-1.9,1.406l-2.007,4.39a1.916,1.916,0,0,1-1.755,1.127L0,17.139.069,3.677C.081,1.332,2.016,0,4.327,0ZM91.861,7.038a5.5,5.5,0,0,0-3.793.024,1.8,1.8,0,0,0-.63,2.453c.783,1.312,4.492,1.435,5.171-.191.254-.609.209-1.923-.748-2.285m8.976.033a5.389,5.389,0,0,0-3.647-.082,1.725,1.725,0,0,0-.932,2.25c.74,1.754,4.447,1.531,5.153.379a1.829,1.829,0,0,0-.573-2.547m8.617-.123a5.192,5.192,0,0,0-3.612.177A1.838,1.838,0,0,0,105.37,9.6c.7,1.142,4.389,1.451,5.141-.366a1.708,1.708,0,0,0-1.057-2.286" fill="#ffb851"/>
        <path id="Trazado_1281460" data-name="Trazado 1281460" d="M331.423,17.189l-7.1,0-.152-13.747c-.007-1.566-1.381-2.572-2.389-3.393l6.493.084a3.525,3.525,0,0,1,3.087,3.187Z" transform="translate(-207.873 -0.029)" fill="#d48718"/>
        <path id="Trazado_1281461" data-name="Trazado 1281461" d="M251,19.289c.957.362,1,1.677.748,2.285-.679,1.626-4.388,1.5-5.171.191a1.8,1.8,0,0,1,.63-2.453A5.5,5.5,0,0,1,251,19.289" transform="translate(-159.143 -12.251)" fill="#f4f5f5"/>
        <path id="Trazado_1281462" data-name="Trazado 1281462" d="M301.233,19.2a1.708,1.708,0,0,1,1.057,2.286c-.752,1.817-4.444,1.508-5.141.366a1.838,1.838,0,0,1,.472-2.476,5.192,5.192,0,0,1,3.612-.177" transform="translate(-191.78 -12.251)" fill="#f4f5f5"/>
        <path id="Trazado_1281463" data-name="Trazado 1281463" d="M276.271,19.319a1.829,1.829,0,0,1,.573,2.547c-.706,1.152-4.413,1.375-5.153-.379a1.725,1.725,0,0,1,.932-2.25,5.39,5.39,0,0,1,3.648.082" transform="translate(-175.435 -12.247)" fill="#f4f5f5"/>
      </g>
    </g>
  </g>
</svg>
