<svg xmlns="http://www.w3.org/2000/svg" xmlns:xlink="http://www.w3.org/1999/xlink" width="96" height="96" viewBox="0 0 96 96">
  <defs>
    <clipPath id="clip-path">
      <rect id="Rectángulo_454829" data-name="Rectángulo 454829" width="96" height="96" fill="#1e535a"/>
    </clipPath>
    <clipPath id="clip-path-2">
      <rect id="Rectángulo_464146" data-name="Rectángulo 464146" width="32.323" height="39.334" fill="#1e535a"/>
    </clipPath>
  </defs>
  <g id="Grupo_1213940" data-name="Grupo 1213940" transform="translate(-1481 -8562.5)">
    <g id="Grupo_1177591" data-name="Grupo 1177591" transform="translate(1481 8562.5)">
      <g id="Grupo_1177589" data-name="Grupo 1177589" transform="translate(0 0)">
        <g id="Grupo_1177587" data-name="Grupo 1177587" clip-path="url(#clip-path)">
          <path id="Trazado_997422" data-name="Trazado 997422" d="M92.081,42.491a44.136,44.136,0,0,0-9.97-22.967,5.076,5.076,0,0,0-7.142-6.838A44.071,44.071,0,0,0,52.151,3.77a5.077,5.077,0,0,0-9.861.2A44.132,44.132,0,0,0,20.4,13.329a5.079,5.079,0,0,0-7.048,7.1A44.1,44.1,0,0,0,4.112,42.448,5.08,5.08,0,0,0,3.99,52.4a44.082,44.082,0,0,0,8.949,22.468,5.078,5.078,0,0,0,6.9,7.17,44.128,44.128,0,0,0,22.412,9.8,5.078,5.078,0,0,0,9.949.2,44.091,44.091,0,0,0,22.985-9.08,5.077,5.077,0,0,0,7.107-6.874A44.147,44.147,0,0,0,92.2,52.349a5.078,5.078,0,0,0-.119-9.858M77.74,22.024a5.05,5.05,0,0,0,2.812-.851,41.913,41.913,0,0,1,9.25,21.3,5.086,5.086,0,0,0-3.246,2.351l-12.98-4.867c.01-.142.02-.286.02-.433a5.079,5.079,0,0,0-2.151-4.15l5.678-13.4a5.5,5.5,0,0,0,.616.041M75,21.216,69.354,34.523a5.026,5.026,0,0,0-5.594,3.23L40.279,32.344a4.941,4.941,0,0,0-.106-1.011l33.322-11.6A5.1,5.1,0,0,0,75,21.216M47.246,10.165a5.083,5.083,0,0,0,4.989-4.122,41.844,41.844,0,0,1,21.158,8.275,5.054,5.054,0,0,0-.735,2.625,5.335,5.335,0,0,0,.048.671L39.217,29.273a5.1,5.1,0,0,0-.92-.92l8.784-18.2c.056,0,.109.008.165.008M42.3,6.243A5.083,5.083,0,0,0,44.86,9.569L36.248,27.4a5.1,5.1,0,0,0-1.049-.109,5.045,5.045,0,0,0-2.9.91L22.1,19.678A5.052,5.052,0,0,0,21.923,15,41.877,41.877,0,0,1,42.3,6.243M10.041,46.332,31.153,35.442a5.064,5.064,0,0,0,4.006,2.014l7.236,23.129a5.166,5.166,0,0,0-1.12,1.239l-31.3-13.04a5.048,5.048,0,0,0,.187-1.348,5.107,5.107,0,0,0-.124-1.1m4.986-24.391a5.079,5.079,0,0,0,5.673-.484l10.079,8.417a5.068,5.068,0,0,0-.56,3.512L9.07,44.29A5.081,5.081,0,0,0,6.38,42.526a41.859,41.859,0,0,1,8.647-20.585m2.1,50.717a5.067,5.067,0,0,0-2.523.674A41.822,41.822,0,0,1,6.263,52.374,5.087,5.087,0,0,0,8.9,50.783l31.609,13.17a5.45,5.45,0,0,0-.041.611,5.081,5.081,0,0,0,.3,1.718L21.657,75.44a5.081,5.081,0,0,0-4.528-2.782M42.349,89.575a41.919,41.919,0,0,1-20.912-9.149,5.029,5.029,0,0,0,.775-2.686l0-.058L42,68.2A5.082,5.082,0,0,0,43.8,69.329l1.186,17.043a5.082,5.082,0,0,0-2.632,3.2m2.105-29.97-7.081-22.64a5.089,5.089,0,0,0,2.415-2.415L63.459,40a5.052,5.052,0,0,0,.808,2.311L48.032,60.13a5.019,5.019,0,0,0-3.577-.524m7.74,30.167a5.081,5.081,0,0,0-4.948-3.937l-.038,0L46.081,69.62a5.073,5.073,0,0,0,3.106-1.507L72.853,78.551c0,.046-.008.086-.008.132a5.057,5.057,0,0,0,.752,2.65,41.841,41.841,0,0,1-21.4,8.439M73.423,76.334,50.373,66.165a5.052,5.052,0,0,0-.666-4.52L65.893,43.877a5.052,5.052,0,0,0,2.622.735,5.594,5.594,0,0,0,.623-.041l6.05,29.836a5.071,5.071,0,0,0-1.766,1.928m7.292-1.9a5.051,5.051,0,0,0-3.377-.8L71.285,43.788a5.1,5.1,0,0,0,1.6-1.672L85.858,46.98a4.506,4.506,0,0,0-.023.456,5.08,5.08,0,0,0,4.084,4.981,41.876,41.876,0,0,1-9.2,22.017" transform="translate(0 0.001)" fill="#1e535a"/>
        </g>
      </g>
    </g>
    <g id="Elipse_13614" data-name="Elipse 13614" transform="translate(1497.965 8579.5)" fill="#d5f4f8" stroke="#1e535a" stroke-width="3">
      <ellipse cx="31.232" cy="31.233" rx="31.232" ry="31.233" stroke="none"/>
      <ellipse cx="31.232" cy="31.233" rx="29.732" ry="29.733" fill="none"/>
    </g>
    <g id="Grupo_1214142" data-name="Grupo 1214142" transform="translate(1512.965 8591.5)">
      <g id="Grupo_1214141" data-name="Grupo 1214141" clip-path="url(#clip-path-2)">
        <path id="Trazado_1281550" data-name="Trazado 1281550" d="M24.825,2.3,22.65,2.29V30.107L0,30.11V11.244l7.741,0a1.244,1.244,0,0,0,1.187-1.107L8.939,2.3H22.632l.009-1.07a1.166,1.166,0,0,1,.994-1.22A1.1,1.1,0,0,1,24.894.9l.057,1.279.021.113,3.942.026a1.118,1.118,0,0,1,1.06,1.194V30.033l.065.056,1.268.049a1.144,1.144,0,0,1,0,2.274l-1.33.046-.009,3.5a1.172,1.172,0,0,1-1.141,1.1l-3.882.006L24.9,38.435a1.087,1.087,0,0,1-1.167.9,1.106,1.106,0,0,1-1.064-1.009l-.026-1.177-.057-.081H1.158A1.221,1.221,0,0,1,0,35.843V32.449H22.648l0,4.525.065.093,2.214-.009.009-4.607,5.035,0V30.154l-.056-.046-4.983,0V2.312ZM12.652,24.329a1.141,1.141,0,0,0,.024-1.571,1.209,1.209,0,0,0-1.589-.16V18.921l4.021.006a1.2,1.2,0,0,0,.111,1.543,1.134,1.134,0,0,0,1.488.079c.8-.709,1.5-1.385,2.257-2.163a1.169,1.169,0,0,0,.005-1.27l-2.125-2.07a1.181,1.181,0,0,0-1.631-.012,1.208,1.208,0,0,0-.1,1.55l-5.09,0A1.19,1.19,0,0,0,8.78,17.693l-.012,4.9a1.2,1.2,0,0,0-1.653.244,1.211,1.211,0,0,0,.21,1.612l1.946,1.993a1.083,1.083,0,0,0,1.475-.126Z" transform="translate(0 0.001)" fill="#1e535a"/>
        <path id="Trazado_1281551" data-name="Trazado 1281551" d="M5.938,27.176.409,27.157l6.577-6.578.009,5.447a1.208,1.208,0,0,1-1.056,1.149" transform="translate(-0.363 -18.259)" fill="#1e535a"/>
      </g>
    </g>
  </g>
</svg>
