<svg xmlns="http://www.w3.org/2000/svg" xmlns:xlink="http://www.w3.org/1999/xlink" width="69" height="69" viewBox="0 0 69 69">
  <defs>
    <clipPath id="clip-path">
      <rect id="Rectángulo_462445" data-name="Rectángulo 462445" width="45.667" height="40.055" fill="#fff"/>
    </clipPath>
  </defs>
  <g id="Grupo_1213969" data-name="Grupo 1213969" transform="translate(-616.567 -749.862)">
    <circle id="Elipse_13676" data-name="Elipse 13676" cx="34.5" cy="34.5" r="34.5" transform="translate(616.567 749.862)" fill="#1e535a"/>
    <g id="Grupo_1212837" data-name="Grupo 1212837" transform="translate(628.567 763.862)">
      <g id="Grupo_1212836" data-name="Grupo 1212836" clip-path="url(#clip-path)">
        <path id="Trazado_1278322" data-name="Trazado 1278322" d="M45.667,32.066H0V0H45.667ZM42.541,3.149H3.125v25.8H42.541ZM23.593,30.507a.761.761,0,1,0-.761.761.761.761,0,0,0,.761-.761" transform="translate(0 -0.001)" fill="#fff"/>
        <path id="Trazado_1278323" data-name="Trazado 1278323" d="M134.723,241.157l-10.947.012,2.112-4.124,6.715-.014Z" transform="translate(-106.42 -203.795)" fill="#fff"/>
        <path id="Trazado_1278324" data-name="Trazado 1278324" d="M116.155,276.178H98.321c-.349-.463-.075-1.546.629-1.546h16.576c.7,0,.977,1.08.629,1.546" transform="translate(-84.405 -236.124)" fill="#fff"/>
        <path id="Trazado_1278325" data-name="Trazado 1278325" d="M67.509,53.985H30.355V30.449H67.509ZM50.3,45.343c.646-.009.154-1.378.6-1.6.479-.238,1.076,1.219,1.653.635L54.4,42.5c.2-.207-.148-.807-.4-.946a.573.573,0,0,1-.3-.615c.148-.487,1.58.081,1.583-.566l.013-2.906c-.6-.57-1.462.11-1.621-.572-.083-.356,1.161-.993.735-1.44L52.8,33.767a1.077,1.077,0,0,0-.759-.285c-.526.165-.623.889-1.132.736-.469-.141.056-1.112-.489-1.609l-2.76-.021c-.808-.006-.228,1.461-.694,1.624-.493.173-.589-.517-1.138-.737a.962.962,0,0,0-.7.238l-1.692,1.794c-.4.425.951,1,.73,1.492-.232.523-1.066-.1-1.561.48a29.739,29.739,0,0,0,.005,2.982c.521.624,1.514-.117,1.587.583.043.407-1.116,1.015-.767,1.384l1.691,1.786a1,1,0,0,0,.712.262c.519-.176.645-.939,1.137-.731.451.191.012,1.107.349,1.442a1.094,1.094,0,0,0,.574.187Zm9.791,6.507a2.145,2.145,0,0,0,1.874-2.366,2.107,2.107,0,0,0-2.2-1.9H38.1a2.134,2.134,0,0,0-.378,4.245Z" transform="translate(-26.099 -26.18)" fill="#fff"/>
        <path id="Trazado_1278326" data-name="Trazado 1278326" d="M81.837,162.638l-3.167.016a1.054,1.054,0,0,1-.953-1.023,1.1,1.1,0,0,1,.97-1l5.076.009Z" transform="translate(-66.82 -138.111)" fill="#fff"/>
        <path id="Trazado_1278327" data-name="Trazado 1278327" d="M209.993,162.669l-5.025-.005,1.978-2.023,3.075,0a1.013,1.013,0,0,1-.027,2.024" transform="translate(-176.228 -138.116)" fill="#fff"/>
        <path id="Trazado_1278328" data-name="Trazado 1278328" d="M122.738,162.661l-4.482-.008,1.963-2.022,4.458.009Z" transform="translate(-101.674 -138.107)" fill="#fff"/>
        <path id="Trazado_1278329" data-name="Trazado 1278329" d="M166.156,162.621l-4.428-.037,1.959-2,4.446,0Z" transform="translate(-139.051 -138.067)" fill="#fff"/>
        <path id="Trazado_1278330" data-name="Trazado 1278330" d="M131.132,64.288l-1.179.01a4.448,4.448,0,0,0-.17-1.18l-1.6-.674a2.612,2.612,0,0,0-.936.715l-.863-.8.771-.814-.69-1.762a3.511,3.511,0,0,0-1.173-.159l-.039-1.131,1.151-.1.753-1.768-.748-.882.8-.8.883.745,1.773-.744.088-1.14H131.1l.092,1.132,1.722.746.942-.731.81.832c-.294.225-.8.7-.7.975l.6,1.472c.108.266.719.3,1.183.221l.046,1.165-1.165.1-.733,1.775.751.886-.814.793a3.632,3.632,0,0,0-.96-.721l-1.519.656c-.231.1-.272.621-.221,1.2m2.025-5.242a2.633,2.633,0,1,0-2.633,2.633,2.633,2.633,0,0,0,2.633-2.633" transform="translate(-107.693 -46.252)" fill="#fff"/>
        <path id="Trazado_1278331" data-name="Trazado 1278331" d="M155.132,82.071a1.5,1.5,0,1,1-1.5-1.5,1.5,1.5,0,0,1,1.5,1.5" transform="translate(-130.798 -69.273)" fill="#fff"/>
      </g>
    </g>
  </g>
</svg>
